# xmcd
#
# Track frame offsets:
# 150
# 15606
# 28876
# 43900
# 58094
# 71776
# 83089
# 97406
# 111096
# 123951
# 137343
# 150669
# 164492
# 180295
# 195314
# 208413
# 221257
# 233155
# 244584
# 256541
# 269438
# 284194
# 298361
# 311680
#
# Disc length: 4328 seconds
#
#
# Revision: 2
# Processed by: cddbd v1.5.2PL0 Copyright (c) Steve Scherf et al.
# Submitted via: FreeRIP 2.96 
#
DISCID=6b10e618
DTITLE=SagaBlues 20 - Harmonica Blues - Blowing from Memphis to Chicago
DYEAR=2004
DGENRE=Blues
TTITLE0=Will Shade - Sun Brimmers Blues
TTITLE1=Noah Lewis - Bad Lucky's My Buddy
TTITLE2=Noah Lewis - Chickasaw Special
TTITLE3=Hammie Nixon - Down South Blues
TTITLE4=Sonny Boy Williamson no 1 - Good Morning, School Girl
TTITLE5=Joe Hill Louis - I Feel Like a Million
TTITLE6=Howlin' Wolf - Riding in the Moonlight
TTITLE7=Big Walter Horton - Easy
TTITLE8=Sonny Boy Williamson no 2 - Nine Below Zero
TTITLE9=Sonny Boy Williamson no 2 - Mighty Long Time
TTITLE10=Doctor Ross - Chicago Breakdown
TTITLE11=James Cotton - Baker Shop Boogie
TTITLE12=Jazz Gillum - I Want You by My Side
TTITLE13=Sonny Boy Williamson no 1 - Sloppy Drunk Blues
TTITLE14=Sonny Boy Williamson no 1 - Sonny Boy's  Jump
TTITLE15=Forest City Joe - Lonesome Day Blues
TTITLE16=Snooky Pryor - I'm Getting Tired
TTITLE17=Big Walter Horton - Evening Sun
TTITLE18=Little Willie Foster - Falling Rain Blues
TTITLE19=Little Walter - Off the Wall
TTITLE20=Little Walter - Quarter to Twelve
TTITLE21=Little Walter - Blues with a Feeling
TTITLE22=Junior Wells - Junior's Wail
TTITLE23=Jimmy Reed - I Found My Baby
EXTD=YEAR: 2004
EXTT0=
EXTT1=
EXTT2=
EXTT3=
EXTT4=
EXTT5=
EXTT6=
EXTT7=
EXTT8=
EXTT9=
EXTT10=
EXTT11=
EXTT12=
EXTT13=
EXTT14=
EXTT15=
EXTT16=
EXTT17=
EXTT18=
EXTT19=
EXTT20=
EXTT21=
EXTT22=
EXTT23=
PLAYORDER=
